<svg id="Слой_1" data-name="Слой 1" xmlns="http://www.w3.org/2000/svg" viewBox="0 0 709 181"><defs><style>.cls-1{fill:#fff;}</style></defs><path class="cls-1" d="M108.667,72.1997V108.222H36.1702v72.112H0V.04346H36.1702V72.1997Z"/><path class="cls-1" d="M108.583,0H72.4212V36.0145H108.583Z"/><path class="cls-1" d="M181.074.01013V180.334H72.4627V144.323H144.903V.01013Z"/><path class="cls-1" d="M269.471,13.4122h-24.5V9.77148h24.5ZM259.288,40.7591H255.11V12.9788h4.178Z"/><path class="cls-1" d="M296.539,40.7591H292.1L281.003,12.4585h1.566L271.473,40.7591h-4.265L279.567,9.77148h4.569Zm-6.093-8.061H273.039V29.1009h17.407Z"/><path class="cls-1" d="M319.776,37.8989h-3.133L304.241,12.1113l1.784-.0427V40.7591h-4.047V9.77148h5.178L319.341,35.2546h-2.176L329.394,9.77148h5.047V40.7591h-4.047V12.0686l1.785.0427Z"/><path class="cls-1" d="M342.492,40.7591V9.77152h4.178V37.6823l-.522-.5203h9.139a6.8275,6.8275,0,0,0,4.612-1.4305,4.98966,4.98966,0,0,0,1.654-3.9871,4.92359,4.92359,0,0,0-1.654-3.9656,6.89989,6.89989,0,0,0-4.612-1.4084H344.625V22.7732h10.662a13.11926,13.11926,0,0,1,5.591,1.1055,8.4238,8.4238,0,0,1,3.656,3.1203,8.65319,8.65319,0,0,1,1.284,4.7454,8.3775,8.3775,0,0,1-4.983,7.8879,12.79886,12.79886,0,0,1-5.548,1.1268Zm2.612-27.3469V9.77148h18.277V13.4122Z"/><path class="cls-1" d="M386.184,41.4527a16.93765,16.93765,0,0,1-6.485-1.2139,15.84559,15.84559,0,0,1-5.178-3.4018,15.33256,15.33256,0,0,1-3.438-5.1574,16.77671,16.77671,0,0,1-1.218-6.436,16.62583,16.62583,0,0,1,1.218-6.4139,15.39731,15.39731,0,0,1,3.438-5.136,15.88583,15.88583,0,0,1,5.178-3.4027,17.93884,17.93884,0,0,1,12.969,0,15.89245,15.89245,0,0,1,5.178,3.4027,15.40093,15.40093,0,0,1,3.438,5.136,16.62745,16.62745,0,0,1,1.218,6.4139,16.79605,16.79605,0,0,1-1.218,6.436,15.3368,15.3368,0,0,1-3.438,5.1574,15.85217,15.85217,0,0,1-5.178,3.4018A16.94028,16.94028,0,0,1,386.184,41.4527Zm0-3.7277a11.94659,11.94659,0,0,0,6.222-1.6029,11.08113,11.08113,0,0,0,4.2-4.4425,13.54782,13.54782,0,0,0,1.501-6.436,13.43364,13.43364,0,0,0-1.501-6.4139,11.12755,11.12755,0,0,0-4.2-4.4212,12.83381,12.83381,0,0,0-12.424,0,11.08495,11.08495,0,0,0-4.221,4.4212,13.43386,13.43386,0,0,0-1.501,6.4139,13.54816,13.54816,0,0,0,1.501,6.436,11.03945,11.03945,0,0,0,4.221,4.4425A11.98,11.98,0,0,0,386.184,37.725Z"/><path class="cls-1" d="M408.811,40.7592V9.77155H420.91a12.69046,12.69046,0,0,1,5.287,1.01855,8.19572,8.19572,0,0,1,3.481,2.8388,7.427,7.427,0,0,1,1.24,4.2907,6.76711,6.76711,0,0,1-1.24,4.0084,8.091,8.091,0,0,1-3.481,2.7305,13.1799,13.1799,0,0,1-5.287.9749h-7.486V23.5102h8.268a13.7232,13.7232,0,0,1,5.549,1.0399,8.6373,8.6373,0,0,1,3.699,2.9258,7.58954,7.58954,0,0,1,1.327,4.4852,8.1716,8.1716,0,0,1-1.327,4.6378,8.63178,8.63178,0,0,1-3.699,3.0769,13.24116,13.24116,0,0,1-5.549,1.0834Zm4.178-3.5972h8.747a6.98376,6.98376,0,0,0,4.591-1.387,4.77749,4.77749,0,0,0,1.675-3.9001,4.77937,4.77937,0,0,0-1.675-3.9008,6.98764,6.98764,0,0,0-4.591-1.387h-9.182V23.0769h8.268a6.401,6.401,0,0,0,4.265-1.3222,4.48,4.48,0,0,0,1.566-3.6185,4.26021,4.26021,0,0,0-1.566-3.4888,6.55211,6.55211,0,0,0-4.265-1.2787h-7.833Z"/><path class="cls-1" d="M461.989,32.7843l2.915,2.8175a14.47355,14.47355,0,0,1-5.308,4.2685,17.10239,17.10239,0,0,1-13.513.3685,15.04927,15.04927,0,0,1-5.026-3.4019,15.7752,15.7752,0,0,1-3.329-5.136,16.86864,16.86864,0,0,1-1.196-6.4139,16.77667,16.77667,0,0,1,1.218-6.436,15.83481,15.83481,0,0,1,3.372-5.1574,15.27785,15.27785,0,0,1,5.07-3.4026,16.39359,16.39359,0,0,1,6.354-1.213,15.87355,15.87355,0,0,1,7.093,1.58154,14.56712,14.56712,0,0,1,5.265,4.2693l-2.915,2.8167a11.55656,11.55656,0,0,0-15.383-3.3149,11.62166,11.62166,0,0,0-4.156,4.4204,13.233,13.233,0,0,0-1.524,6.436,13.16323,13.16323,0,0,0,1.524,6.3704,11.577,11.577,0,0,0,4.156,4.4425,11.3964,11.3964,0,0,0,15.383-3.3156Z"/><path class="cls-1" d="M474.74,40.7591h-4.178V9.77153h4.178Zm22.236,0h-6.048L473.695,24.6805h.652l15.406-14.909h5.396L478.787,25.2436V24.1167Z"/><path class="cls-1" d="M501.676,40.7591V9.77152h4.178V38.462h-2.611L522.651,9.77148h4.526V40.7591H523V12.1983h2.437L506.115,40.7591Z"/><path class="cls-1" d="M535.184,40.7592V9.77156h4.178V38.462H536.75L556.159,9.77153h4.526V40.7591h-4.177V12.1984h2.436L539.623,40.7592Zm12.663-34.282a8.12993,8.12993,0,0,1-5.069-1.53805,6.02218,6.02218,0,0,1-1.633-1.92926A6.00421,6.00421,0,0,1,540.45.58362h3.481a3.86719,3.86719,0,0,0,1.306,2.6,4.08232,4.08232,0,0,0,2.61.82322,3.99589,3.99589,0,0,0,2.59-.82319A3.91316,3.91316,0,0,0,551.721.58362h3.524a6.00367,6.00367,0,0,1-.695,2.42617,6.03645,6.03645,0,0,1-1.633,1.92935A8.131,8.131,0,0,1,547.847,6.47724Z"/><path class="cls-1" d="M247.451,92.7668V61.7792h19.714v3.6406H249.366l2.263-2.687v30.034Z"/><path class="cls-1" d="M284.529,93.4603a16.93588,16.93588,0,0,1-6.485-1.2138,15.84576,15.84576,0,0,1-5.178-3.4019,15.33215,15.33215,0,0,1-3.438-5.1573,17.5546,17.5546,0,0,1,0-12.8499,15.38232,15.38232,0,0,1,3.438-5.136,15.87511,15.87511,0,0,1,5.178-3.4027,17.93832,17.93832,0,0,1,12.969,0,15.90278,15.90278,0,0,1,5.178,3.4027,15.41565,15.41565,0,0,1,3.438,5.136,17.55491,17.55491,0,0,1,0,12.8499,15.33585,15.33585,0,0,1-3.438,5.1573,15.85085,15.85085,0,0,1-5.178,3.4019A16.94184,16.94184,0,0,1,284.529,93.4603Zm0-3.7276a11.94849,11.94849,0,0,0,6.222-1.6029,11.09472,11.09472,0,0,0,4.2-4.4425,14.50124,14.50124,0,0,0,0-12.8499,11.13439,11.13439,0,0,0-4.2-4.4212,12.83379,12.83379,0,0,0-12.424,0,11.0849,11.0849,0,0,0-4.221,4.4212,14.49276,14.49276,0,0,0,0,12.8499,11.03948,11.03948,0,0,0,4.221,4.4425A11.97839,11.97839,0,0,0,284.529,89.7327Z"/><path class="cls-1" d="M330.917,84.792l2.915,2.8174a14.47391,14.47391,0,0,1-5.308,4.2686,17.10351,17.10351,0,0,1-13.513.3685,15.05135,15.05135,0,0,1-5.026-3.4019,15.77617,15.77617,0,0,1-3.329-5.136,17.70206,17.70206,0,0,1,.021-12.8499,15.83771,15.83771,0,0,1,3.373-5.1574,15.27979,15.27979,0,0,1,5.07-3.4026,16.38954,16.38954,0,0,1,6.354-1.213,15.86787,15.86787,0,0,1,7.092,1.5815,14.57045,14.57045,0,0,1,5.266,4.2693l-2.915,2.8167a11.55646,11.55646,0,0,0-15.383-3.3149,11.62125,11.62125,0,0,0-4.156,4.4204,14.21385,14.21385,0,0,0,0,12.8064,11.57729,11.57729,0,0,0,4.156,4.4425,11.39633,11.39633,0,0,0,15.383-3.3156Z"/><path class="cls-1" d="M348.628,85.7891,336.27,61.7792h4.351l11.228,22.1461Zm-9.791,6.9777V89.2131h3.699a6.11992,6.11992,0,0,0,2.437-.4333,4.54131,4.54131,0,0,0,1.784-1.4519,16.86572,16.86572,0,0,0,1.654-2.7953l11.053-22.7534h4.352L351.544,86.3529a17.94619,17.94619,0,0,1-2.394,3.7917,7.09329,7.09329,0,0,1-2.741,2.0157,10.28885,10.28885,0,0,1-3.786.6065Z"/><path class="cls-1" d="M361.552,100.308V89.1261h31.376V100.308h-4.003V90.1667l3.003,2.6001H364.207l1.349-2.4703V100.308Zm1.698-9.2746V89.1261h1.262q1.218,0,1.936-1.6036a19.23406,19.23406,0,0,0,1.153-5.1139l2.394-20.6294h19.539V90.8167H385.4V62.6023l2.524,2.8175H371.039l2.959-2.8175-2.436,20.3266a19.09711,19.09711,0,0,1-.979,4.4417,5.17653,5.17653,0,0,1-5.462,3.6628Z"/><path class="cls-1" d="M425.61,92.7668h-4.439L410.074,64.4662h1.566L400.544,92.7668h-4.265l12.359-30.9876h4.569Zm-6.092-8.0611H402.111V81.1086h17.407Z"/><path class="cls-1" d="M435.227,92.7669h-4.178V61.7793h12.272a12.651,12.651,0,0,1,5.526,1.1268,8.532,8.532,0,0,1,0,15.6018,12.6425,12.6425,0,0,1-5.526,1.1268h-8.529V76.0375h8.529a6.9144,6.9144,0,0,0,4.591-1.4084,5.43023,5.43023,0,0,0,0-7.8443,6.92039,6.92039,0,0,0-4.591-1.4084h-8.094Z"/><path class="cls-1" d="M483.53,84.792l2.916,2.8174a14.46925,14.46925,0,0,1-5.309,4.2686,17.10121,17.10121,0,0,1-13.512.3685,15.031,15.031,0,0,1-5.026-3.4019,15.76258,15.76258,0,0,1-3.33-5.136,17.70206,17.70206,0,0,1,.022-12.8499,15.83825,15.83825,0,0,1,3.373-5.1574,15.26347,15.26347,0,0,1,5.069-3.4026,16.393,16.393,0,0,1,6.354-1.213,15.87186,15.87186,0,0,1,7.093,1.5815,14.57893,14.57893,0,0,1,5.266,4.2693l-2.916,2.8167a11.55654,11.55654,0,0,0-15.383-3.3149,11.62123,11.62123,0,0,0-4.156,4.4204,14.222,14.222,0,0,0,0,12.8064,11.57734,11.57734,0,0,0,4.156,4.4425A11.39634,11.39634,0,0,0,483.53,84.792Z"/><path class="cls-1" d="M514.122,65.4198h-24.5V61.7792h24.5Zm-10.183,27.347h-4.178V64.9865h4.178Z"/><path class="cls-1" d="M519.605,92.7669V61.7792h12.098a12.68974,12.68974,0,0,1,5.287,1.0185,8.1909,8.1909,0,0,1,3.481,2.8389,7.427,7.427,0,0,1,1.24,4.2907,6.76732,6.76732,0,0,1-1.24,4.0084,8.091,8.091,0,0,1-3.481,2.7305,13.18162,13.18162,0,0,1-5.287.9749h-7.485V75.5179h8.268a13.71689,13.71689,0,0,1,5.548,1.0399,8.6461,8.6461,0,0,1,3.7,2.9258,7.59553,7.59553,0,0,1,1.326,4.4852,8.17069,8.17069,0,0,1-1.326,4.6378,8.64057,8.64057,0,0,1-3.7,3.0769,13.238,13.238,0,0,1-5.548,1.0833Zm4.178-3.5972h8.746a6.98376,6.98376,0,0,0,4.591-1.387,5.37909,5.37909,0,0,0,0-7.8009,6.98764,6.98764,0,0,0-4.591-1.387h-9.181V75.0846h8.268a6.39826,6.39826,0,0,0,4.264-1.3222,4.48485,4.48485,0,0,0,1.567-3.6185,4.25722,4.25722,0,0,0-1.567-3.4888,6.54929,6.54929,0,0,0-4.264-1.2787h-7.833Z"/><path class="cls-1" d="M570.214,92.7668H549.196V61.7792h21.018v3.5972h-16.84V89.1696h16.84Zm-.826-13.9989H552.939V75.1707h16.449Z"/><path class="cls-1" d="M580.355,92.7668h-4.178V61.7792h4.178Zm-.436-14.2156V74.9106h17.973v3.6406Zm17.538,14.2156V61.7792h4.178V92.7668Z"/><path class="cls-1" d="M613.819,92.7668h-4.178V61.7792h4.178Zm-.436-14.2156V74.9106h17.973v3.6406Zm17.538,14.2156V61.7792h4.178V92.7668Z"/><path class="cls-1" d="M643.105,92.7668V61.7792h4.178V89.6899l-.522-.5638H655.9a6.63027,6.63027,0,0,0,4.612-1.4953,5.81719,5.81719,0,0,0,0-8.1259,6.697,6.697,0,0,0-4.612-1.4732H645.238V74.391H655.9a12.90193,12.90193,0,0,1,5.591,1.1269,8.47612,8.47612,0,0,1,3.65594,3.1852,9.03365,9.03365,0,0,1,1.28406,4.8758,8.75152,8.75152,0,0,1-1.306,4.7889,8.89436,8.89436,0,0,1-3.677,3.2286,12.39629,12.39629,0,0,1-5.548,1.1704Zm32.029,0h-4.178V61.7792h4.178Z"/><path class="cls-1" d="M683.01,92.7668V61.7792h4.178V90.4697h-2.611l19.408-28.6905h4.526V92.7668h-4.177V64.206h2.437L687.449,92.7668Zm12.664-34.2819a8.133,8.133,0,0,1-5.07-1.5381,6.00931,6.00931,0,0,1-2.328-4.3555h3.482a3.86166,3.86166,0,0,0,1.305,2.6,4.0847,4.0847,0,0,0,2.611.8232,3.99427,3.99427,0,0,0,2.589-.8232,3.913,3.913,0,0,0,1.284-2.6h3.524a6.0097,6.0097,0,0,1-2.328,4.3555A8.13,8.13,0,0,1,695.674,58.4849Z"/><path class="cls-1" d="M256.59,137.796l-12.358-24.01h4.351l11.228,22.146Zm-9.791,6.978V141.22h3.699a6.11961,6.11961,0,0,0,2.437-.433,4.53742,4.53742,0,0,0,1.784-1.452,16.91206,16.91206,0,0,0,1.654-2.795l11.053-22.754h4.352L259.506,138.36a18.00594,18.00594,0,0,1-2.394,3.792,7.10209,7.10209,0,0,1-2.741,2.015,10.28034,10.28034,0,0,1-3.787.607Z"/><path class="cls-1" d="M280.742,144.774h-4.178V113.786h4.178Zm-.435-14.216v-3.64h17.972v3.64Zm17.537,14.216V113.786h4.178v30.988Z"/><path class="cls-1" d="M310.028,144.774V113.786h4.178v28.691h-2.611l19.408-28.691h4.526v30.988h-4.177V116.213h2.437l-19.322,28.561Z"/><path class="cls-1" d="M343.536,144.774V113.786h12.098a12.69185,12.69185,0,0,1,5.287,1.019,8.18657,8.18657,0,0,1,3.481,2.839,7.424,7.424,0,0,1,1.24,4.29,6.77041,6.77041,0,0,1-1.24,4.009,8.08768,8.08768,0,0,1-3.481,2.73,13.1678,13.1678,0,0,1-5.287.975h-7.485v-2.123h8.268a13.69854,13.69854,0,0,1,5.548,1.04,8.63761,8.63761,0,0,1,3.7,2.926,7.59368,7.59368,0,0,1,1.326,4.485,8.17353,8.17353,0,0,1-1.326,4.638,8.63767,8.63767,0,0,1-3.7,3.076,13.234,13.234,0,0,1-5.548,1.084Zm4.178-3.597h8.747a6.98869,6.98869,0,0,0,4.59-1.387,5.37879,5.37879,0,0,0,0-7.801,6.98319,6.98319,0,0,0-4.59-1.387h-9.182v-3.51h8.268a6.39943,6.39943,0,0,0,4.264-1.323,4.48494,4.48494,0,0,0,1.567-3.618,4.25712,4.25712,0,0,0-1.567-3.489,6.54953,6.54953,0,0,0-4.264-1.279h-7.833Z"/><path class="cls-1" d="M394.146,144.774H373.127V113.786h21.019v3.597H377.305v23.794h16.841Zm-.826-13.999H376.87v-3.597h16.45Z"/><path class="cls-1" d="M404.286,144.774h-4.178V113.786H412.38a12.65872,12.65872,0,0,1,5.526,1.127,8.53244,8.53244,0,0,1,0,15.602,12.65592,12.65592,0,0,1-5.526,1.127h-8.53v-3.598h8.53a6.917,6.917,0,0,0,4.591-1.408,5.43005,5.43005,0,0,0,0-7.844,6.92318,6.92318,0,0,0-4.591-1.409h-8.094Z"/><path class="cls-1" d="M452.589,136.799l2.915,2.817a14.47679,14.47679,0,0,1-5.308,4.269,17.09948,17.09948,0,0,1-13.513.368,15.05159,15.05159,0,0,1-5.026-3.401,15.79063,15.79063,0,0,1-3.329-5.136,17.70237,17.70237,0,0,1,.021-12.85,15.83181,15.83181,0,0,1,3.373-5.158,15.27531,15.27531,0,0,1,5.07-3.402,16.36945,16.36945,0,0,1,6.354-1.213,15.86164,15.86164,0,0,1,7.092,1.581,14.57264,14.57264,0,0,1,5.266,4.269l-2.915,2.817a11.557,11.557,0,0,0-15.383-3.315,11.6208,11.6208,0,0,0-4.156,4.421,14.213,14.213,0,0,0,0,12.806,11.58434,11.58434,0,0,0,4.156,4.443,11.39708,11.39708,0,0,0,15.383-3.316Z"/><path class="cls-1" d="M461.161,144.774V113.786h4.178v28.691h-2.611l19.409-28.691h4.525v30.988h-4.177V116.213h2.437l-19.321,28.561Z"/><path class="cls-1" d="M516.689,117.427h-24.5v-3.641h24.5Zm-10.183,27.347h-4.178V116.993h4.178Z"/><path class="cls-1" d="M543.19,144.774H522.171V113.786H543.19v3.597H526.349v23.794H543.19Zm-.827-13.999H525.914v-3.597h16.449Z"/><path class="cls-1" d="M571.171,117.427h-24.5v-3.641h24.5Zm-10.183,27.347H556.81V116.993h4.178Z"/><path class="cls-1" d="M245.85,175.979V157.386h2.507v17.215H246.79l11.645-17.215h2.715v18.593h-2.506V158.842h1.462l-11.593,17.137Z"/><path class="cls-1" d="M276.634,174.262h-1.88l-7.441-15.472,1.07-.026v17.215h-2.428V157.386h3.107l7.311,15.29h-1.306l7.337-15.29h3.029v18.593h-2.428V158.764l1.07.026Z"/><path class="cls-1" d="M292.613,174.574a1.69059,1.69059,0,0,1-1.671,1.665,1.66548,1.66548,0,0,1-.65-3.21,1.68378,1.68378,0,0,1,.65-.119,1.63744,1.63744,0,0,1,.637.122,1.62028,1.62028,0,0,1,.538.36,1.57218,1.57218,0,0,1,.373.539A1.5967,1.5967,0,0,1,292.613,174.574Z"/><path class="cls-1" d="M301.49,175.979V157.386h11.828v2.185H302.639l1.358-1.612v18.02Z"/><path class="cls-1" d="M315.433,174.574a1.69057,1.69057,0,0,1-1.671,1.665,1.63707,1.63707,0,0,1-1.201-.494,1.65931,1.65931,0,0,1,.551-2.716,1.67691,1.67691,0,0,1,.65-.119,1.63323,1.63323,0,0,1,1.175.482,1.5849,1.5849,0,0,1,.496,1.182Z"/><path class="cls-1" d="M326.817,175.979H324.31V157.386h7.364a7.6008,7.6008,0,0,1,3.315.676,5.11966,5.11966,0,0,1,0,9.361,7.58655,7.58655,0,0,1-3.315.676h-5.118v-2.158h5.118a4.14351,4.14351,0,0,0,2.753-.845,3.25732,3.25732,0,0,0,0-4.707,4.148,4.148,0,0,0-2.753-.844h-4.857Z"/><path class="cls-1" d="M343.892,174.574a1.69057,1.69057,0,0,1-1.671,1.665,1.66078,1.66078,0,0,1-1.201-2.847,1.66179,1.66179,0,0,1,.551-.363,1.68371,1.68371,0,0,1,.65-.119,1.63733,1.63733,0,0,1,.637.122,1.62011,1.62011,0,0,1,.538.36,1.5847,1.5847,0,0,1,.496,1.182Z"/><path class="cls-1" d="M351.15,180.504v-6.709h18.825v6.709h-2.401v-6.085l1.801,1.56H352.743l.809-1.482v6.007Zm1.018-5.565v-1.144h.757q.7305,0,1.162-.962a11.558,11.558,0,0,0,.692-3.069l1.436-12.378h11.724v17.423h-2.481V157.88l1.515,1.691H356.842l1.776-1.691-1.463,12.196a11.37045,11.37045,0,0,1-.587,2.665,3.10452,3.10452,0,0,1-3.277,2.198Z"/><path class="cls-1" d="M386.112,175.979H373.5V157.386h12.612v2.159H376.007V173.82h10.105Zm-.497-8.399h-9.869v-2.159h9.869Z"/><path class="cls-1" d="M392.195,175.979h-2.506V157.386h7.363a7.59789,7.59789,0,0,1,3.315.676,5.11966,5.11966,0,0,1,0,9.361,7.58365,7.58365,0,0,1-3.315.676h-5.118v-2.158h5.118a4.14616,4.14616,0,0,0,2.754-.845,3.25732,3.25732,0,0,0,0-4.707,4.1507,4.1507,0,0,0-2.754-.844h-4.857Z"/><path class="cls-1" d="M404.936,175.979l9.008-9.621-8.46-8.972h3.108l8.355,8.946h.365l-9.086,9.647Zm11.75,0V157.386h2.506v18.593Zm10.966,0-9.087-9.647h.367l8.355-8.946h3.107l-8.46,8.972,9.008,9.621Z"/><path class="cls-1" d="M449.325,175.979h-2.664l-6.658-16.981h.94l-6.658,16.981h-2.559l7.415-18.593h2.742Zm-3.656-4.837H435.225v-2.158h10.444Z"/><path class="cls-1" d="M452.588,175.979V157.386h7.258a7.62405,7.62405,0,0,1,3.172.611,4.91619,4.91619,0,0,1,2.089,1.703,4.45691,4.45691,0,0,1,.745,2.575,4.05976,4.05976,0,0,1-.745,2.405,4.85,4.85,0,0,1-2.089,1.639,7.91756,7.91756,0,0,1-3.172.585h-4.49v-1.275h4.961a8.234,8.234,0,0,1,3.328.624,5.1905,5.1905,0,0,1,2.22,1.756,4.55184,4.55184,0,0,1,.796,2.691,4.90687,4.90687,0,0,1-.796,2.783,5.18719,5.18719,0,0,1-2.22,1.846,7.95864,7.95864,0,0,1-3.328.65Zm2.506-2.159h5.249a4.1822,4.1822,0,0,0,2.754-.832,3.22463,3.22463,0,0,0,0-4.68,4.18842,4.18842,0,0,0-2.754-.833h-5.51V165.37h4.961a3.8456,3.8456,0,0,0,2.559-.794,2.687,2.687,0,0,0,.94-2.171,2.563,2.563,0,0,0-.94-2.094,3.93125,3.93125,0,0,0-2.559-.766h-4.7Z"/><path class="cls-1" d="M470.343,175.979V157.386h2.506v17.215h-1.567l11.645-17.215h2.716v18.593h-2.507V158.842h1.463l-11.594,17.137Z"/><path class="cls-1" d="M492.954,175.979h-2.507V157.386h2.507Zm-.261-8.53v-2.184h10.783v2.184Zm10.522,8.53V157.386h2.507v18.593Z"/><path class="cls-1" d="M526.61,175.979h-2.663l-6.658-16.981h.94l-6.659,16.981h-2.558l7.415-18.593h2.742Zm-3.655-4.837H512.51v-2.158h10.445Z"/></svg>